<svg version="1.1" id="Layer_1" xmlns="http://www.w3.org/2000/svg" xmlns:xlink="http://www.w3.org/1999/xlink" x="0px" y="0px"
	 width="100%" viewBox="0 0 1024 1024" enable-background="new 0 0 1024 1024" xml:space="preserve">
<path fill="#000000" opacity="1.000000" stroke="none" 
	d="
M201.649536,637.999878 
	C201.649292,533.364502 201.648682,429.229095 201.650803,325.093719 
	C201.650955,317.661346 201.660217,317.646698 208.888748,317.646729 
	C251.709213,317.646912 294.546387,316.914612 337.345123,317.881592 
	C375.029114,318.733002 410.926788,327.384796 442.107758,350.009308 
	C471.813690,371.563507 489.011871,401.634125 499.320435,436.174652 
	C507.541748,463.721558 507.391724,491.880371 505.457397,520.170776 
	C505.185699,524.144287 504.674408,528.175354 504.649078,532.073486 
	C504.596924,540.102112 501.252441,546.231201 496.653168,552.431030 
	C472.242798,585.336365 448.094849,618.436340 423.857330,651.469910 
	C422.765625,652.957825 421.573273,654.298523 419.869171,655.157104 
	C397.793365,666.279114 374.490692,673.317627 349.846466,675.315247 
	C319.256622,677.794739 288.587616,675.961853 257.956299,676.338196 
	C240.964005,676.546997 223.965866,676.263611 206.972870,676.440613 
	C202.826889,676.483765 201.486588,675.108582 201.574707,670.987000 
	C201.806152,660.162415 201.650955,649.329529 201.649536,637.999878 
M401.680573,589.180481 
	C413.047455,579.399841 421.017761,567.163574 426.538818,553.413086 
	C439.241577,521.776184 439.929749,489.271240 431.996216,456.506165 
	C427.053009,436.091034 418.241333,417.552490 401.673431,403.711975 
	C381.757355,387.074371 357.940948,380.853119 332.775818,379.522217 
	C315.495636,378.608368 298.130493,379.302429 280.803345,379.272980 
	C272.255615,379.258453 272.252747,379.253571 272.255066,387.645996 
	C272.275391,460.954193 272.296814,534.262390 272.318237,607.570618 
	C272.318542,608.570251 272.390472,609.575195 272.312744,610.568542 
	C272.077667,613.573120 273.410767,614.732910 276.420715,614.666443 
	C300.032532,614.144714 323.721924,616.120483 347.240295,612.653992 
	C367.199738,609.712097 385.520905,602.805847 401.680573,589.180481 
z"/>
<path fill="#000000" opacity="1.000000" stroke="none" 
	d="
M541.000122,317.642914 
	C612.126282,317.641815 682.752502,317.641815 755.180237,317.641815 
	C682.629517,416.827179 610.962158,514.804932 539.294739,612.782715 
	C539.507690,613.300232 539.720581,613.817810 539.933533,614.335327 
	C602.507935,614.335327 665.082397,614.335327 727.057373,614.335327 
	C728.473450,616.881042 727.482178,617.962708 726.809875,619.059937 
	C715.936157,636.809509 704.985413,654.512451 694.210510,672.321777 
	C692.316895,675.451538 689.996643,676.409790 686.456055,676.406860 
	C598.137878,676.333801 509.819641,676.360718 421.501404,676.347168 
	C419.875366,676.346924 418.170044,676.684387 416.607666,675.743896 
	C416.055298,673.779541 417.566315,672.682495 418.501801,671.404846 
	C434.239197,649.910522 450.015350,628.444702 465.756348,606.953003 
	C487.992615,576.593201 510.161591,546.183960 532.441895,515.856445 
	C563.291992,473.863892 594.247131,431.948395 625.045105,389.917725 
	C626.964661,387.298035 630.876160,384.926788 629.035034,380.936768 
	C627.018433,376.566742 622.560669,378.393036 619.153198,378.384827 
	C572.994568,378.273834 526.835571,378.305725 480.676697,378.302368 
	C478.070862,378.302185 475.465057,378.302368 472.190155,378.302368 
	C473.744659,373.179596 476.583618,369.259674 478.910400,365.168213 
	C487.058868,350.839844 495.507721,336.682312 503.666901,322.359863 
	C505.619354,318.932495 507.928680,317.429382 512.009827,317.556793 
	C521.498230,317.852936 531.002319,317.646667 541.000122,317.642914 
z"/>
<path fill="#000000" opacity="1.000000" stroke="none" 
	d="
M803.956482,478.824799 
	C791.258606,514.805298 778.683716,550.411133 766.111877,586.018188 
	C765.454468,587.880188 765.151245,590.186646 762.546021,590.209412 
	C753.772827,590.286011 744.998535,590.238525 736.500366,590.238525 
	C735.312622,587.447876 736.580200,585.682007 737.221130,583.856506 
	C753.363831,537.880920 769.568176,491.926880 785.631470,445.923584 
	C786.925293,442.218323 788.703552,440.547974 792.788635,440.748383 
	C799.099915,441.058014 805.440247,440.889587 811.765076,440.764160 
	C815.737793,440.685394 816.792358,442.177643 815.440796,445.944824 
	C811.564941,456.748108 807.855164,467.610992 803.956482,478.824799 
z"/>
<path fill="#000000" opacity="1.000000" stroke="none" 
	d="
M824.682861,481.910614 
	C824.683167,475.125977 824.683167,468.828857 824.683167,462.531769 
	C825.098633,462.229401 825.514099,461.927063 825.929565,461.624725 
	C850.185486,480.275055 873.742432,499.833038 899.360718,518.763672 
	C873.909729,539.155518 849.212463,558.943420 824.807678,578.497009 
	C822.359741,577.327393 822.880859,575.818176 822.868469,574.593689 
	C822.821167,569.930908 823.426514,565.190796 822.785095,560.620300 
	C821.666443,552.649841 825.003845,547.780762 831.379822,543.358887 
	C841.616333,536.259583 851.237488,528.273071 860.968628,520.777100 
	C860.832214,518.386780 859.147217,517.682007 857.915527,516.691528 
	C848.832764,509.387817 839.898376,501.879211 830.528564,494.961670 
	C826.001831,491.619659 823.794739,487.912048 824.682861,481.910614 
z"/>
<path fill="#000000" opacity="1.000000" stroke="none" 
	d="
M695.310425,523.745728 
	C705.372925,531.695984 715.182068,539.405273 725.007874,547.093262 
	C726.593933,548.334167 728.307617,549.463196 728.311157,551.778137 
	C728.324280,560.394165 728.316406,569.010254 728.316406,577.684082 
	C725.582947,577.990723 724.332520,576.149536 722.875916,575.002930 
	C701.175415,557.921265 679.542725,540.753601 657.858032,523.651855 
	C655.289307,521.625977 653.646240,520.021790 657.169495,517.174500 
	C679.682007,498.981140 702.095947,480.665894 724.556763,462.408539 
	C725.172424,461.908112 725.950989,461.608093 726.841187,461.109619 
	C728.804077,464.191833 727.489563,467.447662 728.059204,470.415680 
	C730.846741,484.939453 725.087952,494.935608 712.666748,502.433533 
	C705.749817,506.608856 699.834473,512.443237 693.466675,517.528564 
	C692.689819,518.148926 691.842957,518.715515 691.787476,519.961609 
	C692.309570,521.587891 694.014526,522.248108 695.310425,523.745728 
z"/>
</svg>